<svg width="13" height="13" viewBox="0 0 13 13" fill="none" xmlns="http://www.w3.org/2000/svg">
<path d="M9.07133 2.55802L10.4418 3.92786L9.07133 2.55802ZM9.95264 1.35124L6.24689 5.05699C6.05542 5.2482 5.92483 5.49181 5.87159 5.75711L5.5293 7.47054L7.24273 7.1276C7.50802 7.07454 7.75132 6.94448 7.94285 6.75295L11.6486 3.0472C11.76 2.93584 11.8483 2.80364 11.9086 2.65815C11.9688 2.51265 11.9998 2.35671 11.9998 2.19922C11.9998 2.04174 11.9688 1.8858 11.9086 1.7403C11.8483 1.5948 11.76 1.4626 11.6486 1.35124C11.5372 1.23989 11.405 1.15155 11.2595 1.09129C11.114 1.03102 10.9581 1 10.8006 1C10.6431 1 10.4872 1.03102 10.3417 1.09129C10.1962 1.15155 10.064 1.23989 9.95264 1.35124V1.35124Z" stroke="#0C77F8" stroke-width="1.29413" stroke-linecap="round" stroke-linejoin="round"/>
<path d="M10.706 8.76558V10.7068C10.706 11.05 10.5696 11.3792 10.3269 11.6219C10.0842 11.8646 9.75508 12.0009 9.41185 12.0009H2.29413C1.95091 12.0009 1.62174 11.8646 1.37904 11.6219C1.13635 11.3792 1 11.05 1 10.7068V3.58905C1 3.24583 1.13635 2.91666 1.37904 2.67396C1.62174 2.43127 1.95091 2.29492 2.29413 2.29492H4.23533" stroke="#0C77F8" stroke-width="1.29413" stroke-linecap="round" stroke-linejoin="round"/>
</svg>
