<svg width="18" height="18" viewBox="0 0 18 18" fill="none" xmlns="http://www.w3.org/2000/svg">
<path fill-rule="evenodd" clip-rule="evenodd" d="M10.2344 5.66537C10.2344 7.53803 8.702 9.03874 6.78978 9.03874C4.87824 9.03874 3.34513 7.53803 3.34513 5.66537C3.34513 3.7927 4.87824 2.29199 6.78978 2.29199C8.702 2.29199 10.2344 3.7927 10.2344 5.66537ZM1.58398 12.8586C1.58398 11.1251 3.98207 10.6913 6.78976 10.6913C9.61271 10.6913 11.9955 11.14 11.9955 12.8749C11.9955 14.6084 9.59746 15.0421 6.78976 15.0421C3.96682 15.0421 1.58398 14.5935 1.58398 12.8586ZM11.6237 5.72651C11.6237 6.68015 11.3313 7.56999 10.8184 8.30914C10.765 8.38516 10.8121 8.48765 10.905 8.50394C11.0339 8.52499 11.1663 8.53788 11.3015 8.5406C12.646 8.57521 13.8527 7.72746 14.1861 6.45073C14.6803 4.55635 13.2303 2.85541 11.3832 2.85541C11.1829 2.85541 10.991 2.87577 10.8038 2.9131C10.7782 2.91853 10.7504 2.93075 10.7366 2.95247C10.7186 2.9803 10.7317 3.01627 10.7498 3.04003C11.3049 3.80226 11.6237 4.73011 11.6237 5.72651ZM13.8506 9.87272C14.7544 10.0458 15.3484 10.3981 15.5944 10.9119C15.803 11.3327 15.803 11.8214 15.5944 12.2422C15.2181 13.0377 14.0038 13.2936 13.5318 13.3594C13.4341 13.373 13.3557 13.2916 13.3661 13.1952C13.6073 10.9906 11.6896 9.94534 11.1933 9.70506C11.1725 9.69353 11.1677 9.67724 11.1698 9.66638C11.1711 9.65959 11.1801 9.64873 11.1961 9.64669C12.2697 9.62633 13.4244 9.7709 13.8506 9.87272Z" fill="#00B7FE"/>
</svg>
