<svg width="15" height="15" viewBox="0 0 15 15" fill="none" xmlns="http://www.w3.org/2000/svg">
<path fill-rule="evenodd" clip-rule="evenodd" d="M7.03971 0H10.8192C12.7089 0 14.2501 1.5 14.2501 3.33V11.67C14.2501 13.5075 12.7089 15 10.8037 15H7.03196C5.14223 15 3.59326 13.5075 3.59326 11.6775V8.0775H8.39505L7.15588 9.2775C6.92354 9.5025 6.92354 9.87 7.15588 10.095C7.27205 10.2075 7.42695 10.26 7.58185 10.26C7.729 10.26 7.8839 10.2075 8.00007 10.095L10.2616 7.9125C10.3777 7.8075 10.4397 7.6575 10.4397 7.5C10.4397 7.35 10.3777 7.2 10.2616 7.095L8.00007 4.9125C7.76772 4.6875 7.38823 4.6875 7.15588 4.9125C6.92354 5.1375 6.92354 5.505 7.15588 5.73L8.39505 6.9225H3.59326V3.3375C3.59326 1.5 5.14223 0 7.03971 0ZM0 7.49999C0 7.18499 0.266422 6.92249 0.586128 6.92249H3.59289V8.07749H0.586128C0.266422 8.07749 0 7.82249 0 7.49999Z" fill="#551FFF"/>
</svg>
