<svg width="17" height="16" viewBox="0 0 17 16" fill="none" xmlns="http://www.w3.org/2000/svg">
<path fill-rule="evenodd" clip-rule="evenodd" d="M6.31628 7.384C5.96628 7.384 5.68953 7.656 5.68953 8C5.68953 8.336 5.96628 8.616 6.31628 8.616H11.2V7.38414H14.512L13.232 6.11214C12.992 5.87214 12.992 5.48014 13.232 5.24014C13.472 4.99214 13.864 4.99214 14.104 5.23214L16.44 7.56014C16.56 7.68014 16.624 7.83214 16.624 8.00014C16.624 8.16014 16.56 8.32014 16.44 8.43214L14.104 10.7601C13.984 10.8801 13.824 10.9441 13.672 10.9441C13.512 10.9441 13.352 10.8801 13.232 10.7601C12.992 10.5201 12.992 10.1281 13.232 9.88814L14.512 8.61614H11.2V12.44C11.2 14.4 9.58023 16 7.57791 16H3.61395C1.61977 16 0 14.408 0 12.448V3.56C0 1.592 1.62791 0 3.62209 0H7.59419C9.58023 0 11.2 1.592 11.2 3.552V7.384H6.31628Z" fill="#00B7FE"/>
</svg>
