<svg width="119" height="119" viewBox="0 0 119 119" fill="none" xmlns="http://www.w3.org/2000/svg">
<path d="M59.4863 118.973C92.3397 118.973 118.973 92.3397 118.973 59.4863C118.973 26.6329 92.3397 0 59.4863 0C26.6329 0 0 26.6329 0 59.4863C0 92.3397 26.6329 118.973 59.4863 118.973Z" fill="#E3F7EE"/>
<path d="M48.7354 50.6275C48.7354 50.6275 48.3788 50.7921 47.94 50.7921C47.4738 50.7921 47.1173 50.6275 47.1173 50.6275C47.0624 49.5305 46.9801 47.885 47.2544 47.2542C47.3915 46.9799 47.5835 46.8702 47.7481 46.8976C47.9126 46.8976 48.132 46.9799 48.2691 47.2542C48.6257 47.885 48.6805 49.5305 48.7354 50.6275Z" fill="#FFE0BC" fill-opacity="0.5"/>
<path d="M47.5285 32.5546C47.4737 32.6369 47.5011 32.7466 47.5834 32.8014L48.5159 33.4322C48.5981 33.4871 48.7079 33.4596 48.7627 33.3774C48.8176 33.2951 48.7901 33.1854 48.7079 33.1305L47.7754 32.4997C47.6931 32.4449 47.5834 32.4723 47.5285 32.5546Z" fill="#FFE0BC" fill-opacity="0.5"/>
<path d="M47.1447 33.1576C47.0899 33.2399 47.1173 33.3496 47.1996 33.4044L48.1321 34.0352C48.2144 34.0901 48.3241 34.0627 48.3789 33.9804C48.4338 33.8981 48.4063 33.7884 48.3241 33.7336L47.3916 33.1028C47.3093 33.0479 47.1996 33.0753 47.1447 33.1576Z" fill="#FFE0BC" fill-opacity="0.5"/>
<path d="M20.8704 34.0005L14 71.917L97.2425 87.0005L104.113 49.084L20.8704 34.0005Z" fill="white"/>
<path d="M94.2327 83.5L18.0498 69.695L23.9065 37.4834L100.089 51.2884L94.2327 83.5ZM21.4429 67.3244L91.8157 80.0603L96.6033 53.6589L26.2305 40.923L21.4429 67.3244Z" fill="#30BFA3"/>
<path d="M39.9006 57.0133C40.3855 54.3357 38.6079 51.772 35.9304 51.2871C33.2528 50.8022 30.6891 52.5797 30.2042 55.2573C29.7193 57.9349 31.4968 60.4986 34.1744 60.9835C36.8519 61.4684 39.4157 59.6908 39.9006 57.0133Z" fill="#30BFA3"/>
<path d="M87.9124 65.6963C87.4476 68.3922 84.8446 70.1585 82.1487 69.6937C79.4528 69.2288 77.6865 66.6259 78.1513 63.93C78.6626 61.234 81.2191 59.4678 83.915 59.9326C86.6109 60.4439 88.3772 63.0003 87.9124 65.6963Z" fill="#30BFA3"/>
<path d="M70.4033 62.5314C71.5384 56.2669 67.3802 50.2683 61.1157 49.1331C54.8512 47.998 48.8526 52.1562 47.7174 58.4207C46.5823 64.6853 50.7405 70.6839 57.005 71.819C63.2696 72.9541 69.2682 68.7959 70.4033 62.5314Z" fill="#30BFA3"/>
</svg>
