<svg width="117" height="117" viewBox="0 0 117 117" fill="none" xmlns="http://www.w3.org/2000/svg">
<mask id="mask0" style="mask-type:alpha" maskUnits="userSpaceOnUse" x="0" y="0" width="117" height="117">
<circle cx="58.5" cy="58.5" r="58.5" fill="#5D7EA9"/>
</mask>
<g mask="url(#mask0)">
<circle cx="58.5" cy="58.5" r="58.5" fill="#F4F9FE"/>
<path fill-rule="evenodd" clip-rule="evenodd" d="M70.0337 34.2323L19.8239 29.3804L15.7276 30.4939L14.1069 96.9498L72.1117 94.8818L70.0337 34.2323Z" fill="#5D7EA9"/>
<path fill-rule="evenodd" clip-rule="evenodd" d="M79.1204 50.5676C80.1843 55.6582 83.0179 59.3966 85.1257 60.5101C87.661 61.8524 90.1169 63.1847 91.6182 64.4474C91.7275 64.507 91.827 64.5567 91.9363 64.6164C91.3597 65.2925 90.7631 65.9686 90.1467 66.6347L97.1562 70.2836C96.7982 70.6813 96.4403 71.089 96.0724 71.4767L116.972 82.5925V56.215L108.62 52.1783C108.421 52.6456 108.212 53.1129 108.003 53.5802L101.024 49.9114C100.895 50.1997 100.775 50.498 100.636 50.7863C100.606 50.7665 100.586 50.7466 100.557 50.7366C97.4346 48.8774 97.4147 35.3058 96.9573 31.5376C83.1471 38.6465 78.1958 50.7565 79.1204 50.5676Z" fill="#5D7EA9"/>
<path fill-rule="evenodd" clip-rule="evenodd" d="M19.8231 29.3804L15.7964 30.4343L18.3019 93.2611L22.3286 92.2072L19.8231 29.3804Z" fill="#F4F9FE"/>
<path fill-rule="evenodd" clip-rule="evenodd" d="M22.3288 92.2072L77.3706 90.7059L70.3313 33.9639L19.8232 29.3804L22.3288 92.2072Z" fill="white"/>
<path fill-rule="evenodd" clip-rule="evenodd" d="M25.9082 35.5146C32.4603 35.5942 39.0323 35.6638 45.5845 35.7433C52.1465 35.8129 58.7086 35.8925 65.2806 35.9621C65.5888 38.8951 65.8871 41.8282 66.1953 44.7513C59.5537 44.7413 52.9121 44.7214 46.2805 44.7115C39.6488 44.6916 33.0072 44.6817 26.3755 44.6618C26.2264 41.6094 26.0673 38.5571 25.9082 35.5146Z" fill="#FFF4DA"/>
<path fill-rule="evenodd" clip-rule="evenodd" d="M26.7638 51.9394C28.5037 51.9294 30.2437 51.9195 31.9836 51.9096C31.8742 50.0304 31.7649 48.1513 31.6456 46.2721C29.9156 46.2622 28.1856 46.2622 26.4556 46.2622C26.5749 48.1612 26.6644 50.0603 26.7638 51.9394Z" fill="#DCECFF"/>
<path fill-rule="evenodd" clip-rule="evenodd" d="M32.5797 51.9201C34.3197 51.9102 36.0596 51.9002 37.8095 51.8903C37.6902 50.0211 37.561 48.1519 37.4416 46.2827C35.7116 46.2827 33.9816 46.2827 32.2417 46.2827C32.361 48.1619 32.4704 50.041 32.5797 51.9201Z" fill="#DCECFF"/>
<path fill-rule="evenodd" clip-rule="evenodd" d="M38.4057 51.89C40.1456 51.88 41.8855 51.8701 43.6255 51.8601C43.4962 50.0009 43.357 48.1416 43.2178 46.2824C41.4878 46.2724 39.7578 46.2724 38.0278 46.2824C38.1571 48.1516 38.2764 50.0208 38.4057 51.89Z" fill="#DCECFF"/>
<path fill-rule="evenodd" clip-rule="evenodd" d="M44.232 51.8605C45.972 51.8505 47.7119 51.8406 49.4519 51.8307C49.3027 49.9913 49.1536 48.142 49.0045 46.2927C47.2745 46.2827 45.5445 46.2827 43.8145 46.2827C43.9536 48.142 44.0928 50.0012 44.232 51.8605Z" fill="#DCECFF"/>
<path fill-rule="evenodd" clip-rule="evenodd" d="M50.0487 51.83C51.7886 51.82 53.5285 51.8101 55.2685 51.8002C55.1094 49.9608 54.9404 48.1214 54.7813 46.292C53.0513 46.292 51.3213 46.292 49.5913 46.292C49.7504 48.1413 49.8995 49.9906 50.0487 51.83Z" fill="#DCECFF"/>
<path fill-rule="evenodd" clip-rule="evenodd" d="M55.8651 51.8005C57.6051 51.7905 59.345 51.7806 61.0949 51.7806C60.9259 49.9512 60.7469 48.1218 60.5779 46.3023C58.8479 46.3023 57.1179 46.2923 55.3779 46.3023C55.537 48.1317 55.706 49.9711 55.8651 51.8005Z" fill="#DCECFF"/>
<path fill-rule="evenodd" clip-rule="evenodd" d="M61.691 51.7703C63.431 51.7604 65.1709 51.7504 66.9208 51.7405C66.7319 49.931 66.543 48.1115 66.364 46.292C64.634 46.3019 62.8941 46.292 61.1641 46.292C61.3331 48.1214 61.5121 49.9508 61.691 51.7703Z" fill="#DCECFF"/>
<path fill-rule="evenodd" clip-rule="evenodd" d="M50.5955 58.5613C52.3554 58.5414 54.1053 58.5216 55.8651 58.4917C55.6961 56.6623 55.537 54.8229 55.3779 52.9736C53.628 52.9935 51.8881 53.0035 50.1382 53.0134C50.2973 54.8727 50.4464 56.722 50.5955 58.5613Z" fill="#F4F9FE"/>
<path fill-rule="evenodd" clip-rule="evenodd" d="M56.4623 58.5015C58.2221 58.4717 59.9819 58.4618 61.7418 58.4319C61.5628 56.6125 61.3838 54.783 61.2148 52.9536C59.4649 52.9735 57.725 52.9834 55.9751 52.9934C56.1441 54.8228 56.3032 56.6622 56.4623 58.5015Z" fill="#F4F9FE"/>
<path fill-rule="evenodd" clip-rule="evenodd" d="M62.3375 58.4222C64.0973 58.4023 65.8572 58.3825 67.617 58.3626C67.4281 56.5431 67.2392 54.7335 67.0503 52.9141C65.3004 52.9339 63.5604 52.9439 61.8105 52.9538C61.9796 54.7833 62.1585 56.6027 62.3375 58.4222Z" fill="#F4F9FE"/>
<path fill-rule="evenodd" clip-rule="evenodd" d="M27.4788 65.7202C29.2386 65.6904 31.0183 65.6606 32.7881 65.6308C32.6787 63.7516 32.5693 61.8725 32.46 59.9834C30.7001 60.0132 28.9403 60.0331 27.1904 60.053C27.2899 61.9321 27.3793 63.8312 27.4788 65.7202Z" fill="#F4F9FE"/>
<path fill-rule="evenodd" clip-rule="evenodd" d="M33.395 65.6108C35.1648 65.5711 36.9345 65.5412 38.7143 65.5114C38.585 63.6422 38.4657 61.773 38.3464 59.9038C36.5866 59.9237 34.8267 59.9436 33.0669 59.9734C33.1663 61.8525 33.2856 63.7416 33.395 65.6108Z" fill="#F4F9FE"/>
<path fill-rule="evenodd" clip-rule="evenodd" d="M39.3109 65.5112C41.0707 65.4813 42.8505 65.4416 44.6202 65.4117C44.491 63.5525 44.3518 61.6932 44.2126 59.834C42.4528 59.8539 40.6929 59.8837 38.9331 59.9036C39.0624 61.7728 39.1916 63.642 39.3109 65.5112Z" fill="#F4F9FE"/>
<path fill-rule="evenodd" clip-rule="evenodd" d="M45.2265 65.4018C46.9963 65.3719 48.766 65.3322 50.5358 65.3023C50.3867 63.453 50.2375 61.6136 50.0884 59.7544C48.3286 59.7842 46.5687 59.8041 44.8188 59.824C44.9481 61.6832 45.0873 63.5425 45.2265 65.4018Z" fill="#F4F9FE"/>
<path fill-rule="evenodd" clip-rule="evenodd" d="M51.1522 65.2928C52.912 65.263 54.6917 65.2332 56.4615 65.1934C56.3024 63.354 56.1334 61.5246 55.9743 59.6753C54.2145 59.6952 52.4547 59.725 50.6948 59.7449C50.844 61.6041 50.9931 63.4435 51.1522 65.2928Z" fill="#F4F9FE"/>
<path fill-rule="evenodd" clip-rule="evenodd" d="M57.0575 65.1832C58.8273 65.1534 60.597 65.1236 62.3767 65.0838C62.2077 63.2544 62.0288 61.4349 61.8498 59.6055C60.09 59.6353 58.3301 59.6552 56.5703 59.6751C56.7294 61.5144 56.8984 63.3538 57.0575 65.1832Z" fill="#F4F9FE"/>
<path fill-rule="evenodd" clip-rule="evenodd" d="M62.9835 65.0836C64.7533 65.0537 66.523 65.0239 68.3028 64.9842C68.1138 63.1647 67.9249 61.3551 67.736 59.5356C65.9762 59.5655 64.2164 59.5854 62.4565 59.6052C62.6256 61.4247 62.8045 63.2542 62.9835 65.0836Z" fill="#F4F9FE"/>
<path fill-rule="evenodd" clip-rule="evenodd" d="M27.8373 72.6003C29.6171 72.5606 31.4067 72.5208 33.1864 72.4711C33.0771 70.5919 32.9677 68.7029 32.8583 66.8237C31.0885 66.8536 29.3088 66.8933 27.5391 66.9232C27.6385 68.8222 27.7379 70.7113 27.8373 72.6003Z" fill="#F4F9FE"/>
<path fill-rule="evenodd" clip-rule="evenodd" d="M33.7929 72.4611C35.5826 72.4114 37.3623 72.3717 39.152 72.3319C39.0327 70.4627 38.9034 68.5935 38.7841 66.7144C37.0143 66.7541 35.2346 66.784 33.4648 66.8138C33.5742 68.6929 33.6836 70.582 33.7929 72.4611Z" fill="#F4F9FE"/>
<path fill-rule="evenodd" clip-rule="evenodd" d="M39.758 72.3122C41.5377 72.2625 43.3274 72.2227 45.117 72.1829C44.9778 70.3237 44.8486 68.4644 44.7094 66.5952C42.9396 66.635 41.1599 66.6648 39.3901 66.7046C39.5194 68.5738 39.6387 70.443 39.758 72.3122Z" fill="#F4F9FE"/>
<path fill-rule="evenodd" clip-rule="evenodd" d="M45.7335 72.1728C47.5132 72.1231 49.3029 72.0833 51.0826 72.0435C50.9334 70.1942 50.7843 68.3449 50.6352 66.4956C48.8654 66.5354 47.0857 66.5652 45.3159 66.595C45.4551 68.4443 45.5943 70.3036 45.7335 72.1728Z" fill="#F4F9FE"/>
<path fill-rule="evenodd" clip-rule="evenodd" d="M51.6994 72.0238C53.4791 71.9841 55.2687 71.9343 57.0584 71.8946C56.8894 70.0552 56.7303 68.2158 56.5712 66.3765C54.8014 66.4162 53.0217 66.4461 51.252 66.4759C51.3911 68.3252 51.5403 70.1745 51.6994 72.0238Z" fill="#F4F9FE"/>
<path fill-rule="evenodd" clip-rule="evenodd" d="M57.6542 71.8742C59.4339 71.8245 61.2235 71.7847 63.0132 71.7449C62.8342 69.9155 62.6652 68.0861 62.4862 66.2666C60.7165 66.2964 58.9368 66.3362 57.167 66.366C57.3261 68.2054 57.4851 70.0448 57.6542 71.8742Z" fill="#F4F9FE"/>
<path fill-rule="evenodd" clip-rule="evenodd" d="M63.6199 71.7355C65.4096 71.6957 67.1893 71.646 68.9789 71.6062C68.79 69.7867 68.6011 67.9673 68.4122 66.1577C66.6325 66.1975 64.8627 66.2273 63.083 66.2571C63.2719 68.0766 63.4409 69.906 63.6199 71.7355Z" fill="#F4F9FE"/>
<path fill-rule="evenodd" clip-rule="evenodd" d="M28.1952 79.4905C29.9948 79.4408 31.7845 79.3812 33.5841 79.3314C33.4747 77.4523 33.3654 75.5632 33.256 73.6841C31.4663 73.7338 29.6767 73.7736 27.897 73.8133C27.9964 75.7024 28.0958 77.5915 28.1952 79.4905Z" fill="#F4F9FE"/>
<path fill-rule="evenodd" clip-rule="evenodd" d="M34.2101 79.3015C36.0097 79.2419 37.8093 79.1921 39.6089 79.1424C39.4896 77.2732 39.3603 75.404 39.241 73.5249C37.4514 73.5746 35.6617 73.6144 33.8721 73.6641C33.9814 75.5432 34.0908 77.4224 34.2101 79.3015Z" fill="#F4F9FE"/>
<path fill-rule="evenodd" clip-rule="evenodd" d="M40.2155 79.1223C42.0151 79.0626 43.8147 79.0129 45.6143 78.9533C45.4751 77.094 45.3359 75.2347 45.2067 73.3755C43.417 73.4252 41.6274 73.465 39.8477 73.5147C39.967 75.3739 40.0962 77.2531 40.2155 79.1223Z" fill="#F4F9FE"/>
<path fill-rule="evenodd" clip-rule="evenodd" d="M46.2304 78.9338C48.03 78.8741 49.8296 78.8244 51.6292 78.7647C51.4801 76.9154 51.3309 75.0661 51.1818 73.2168C49.3921 73.2665 47.6025 73.3063 45.8228 73.356C45.952 75.2152 46.0912 77.0745 46.2304 78.9338Z" fill="#F4F9FE"/>
<path fill-rule="evenodd" clip-rule="evenodd" d="M52.2458 78.7545C54.0454 78.6949 55.8449 78.6451 57.6445 78.5855C57.4755 76.7461 57.3164 74.9068 57.1574 73.0674C55.3677 73.1171 53.588 73.1569 51.7983 73.2066C51.9475 75.0559 52.0966 76.9052 52.2458 78.7545Z" fill="#F4F9FE"/>
<path fill-rule="evenodd" clip-rule="evenodd" d="M58.251 78.5658C60.0506 78.5062 61.8502 78.4564 63.6498 78.4067C63.4709 76.5773 63.2919 74.7479 63.1229 72.9185C61.3332 72.9682 59.5535 73.0079 57.7539 73.0577C57.9229 74.8871 58.092 76.7264 58.251 78.5658Z" fill="#F4F9FE"/>
<path fill-rule="evenodd" clip-rule="evenodd" d="M64.2664 78.3871C66.066 78.3274 67.8656 78.2777 69.6652 78.218C69.4763 76.3986 69.2874 74.5791 69.0985 72.7695C67.3088 72.8192 65.5191 72.859 63.7295 72.9087C63.9085 74.7282 64.0874 76.5576 64.2664 78.3871Z" fill="#F4F9FE"/>
<path fill-rule="evenodd" clip-rule="evenodd" d="M28.5527 86.3709C30.3622 86.3013 32.1718 86.2417 33.9912 86.1721C33.8719 84.2929 33.7725 82.4138 33.6532 80.5347C31.8536 80.5943 30.0441 80.644 28.2544 80.7037C28.3538 82.5928 28.4532 84.4819 28.5527 86.3709Z" fill="#F4F9FE"/>
<path fill-rule="evenodd" clip-rule="evenodd" d="M34.6081 86.1521C36.4176 86.0825 38.2371 86.0129 40.0566 85.9533C39.9273 84.0841 39.808 82.2149 39.6788 80.3457C37.8792 80.4054 36.0696 80.465 34.27 80.5147C34.3794 82.3939 34.4987 84.273 34.6081 86.1521Z" fill="#F4F9FE"/>
<path fill-rule="evenodd" clip-rule="evenodd" d="M40.6724 85.9236C42.482 85.854 44.2915 85.7844 46.111 85.7247C45.9718 83.8754 45.8326 82.0062 45.6934 80.147C43.8938 80.2066 42.0843 80.2563 40.2847 80.316C40.4139 82.1951 40.5432 84.0643 40.6724 85.9236Z" fill="#F4F9FE"/>
<path fill-rule="evenodd" clip-rule="evenodd" d="M46.7379 85.7043C48.5474 85.6347 50.357 85.5651 52.1765 85.5055C52.0273 83.6661 51.8782 81.8168 51.7291 79.9575C49.9295 80.0172 48.1199 80.0768 46.3203 80.1265C46.4595 81.9858 46.5888 83.855 46.7379 85.7043Z" fill="#F4F9FE"/>
<path fill-rule="evenodd" clip-rule="evenodd" d="M52.7928 85.4761C54.6024 85.4065 56.4218 85.3468 58.2314 85.2772C58.0623 83.4478 57.9033 81.6084 57.7442 79.769C55.9446 79.8287 54.135 79.8784 52.3354 79.9381C52.4945 81.7874 52.6437 83.6367 52.7928 85.4761Z" fill="#F4F9FE"/>
<path fill-rule="evenodd" clip-rule="evenodd" d="M58.8475 85.2573C60.6571 85.1877 62.4766 85.128 64.296 85.0584C64.1171 83.2389 63.9481 81.4095 63.7691 79.5801C61.9695 79.6397 60.16 79.6994 58.3604 79.7491C58.5194 81.5785 58.6885 83.4278 58.8475 85.2573Z" fill="#F4F9FE"/>
<path fill-rule="evenodd" clip-rule="evenodd" d="M95.6757 62.7969C94.0252 61.5939 91.4103 60.3212 88.706 59.0486C86.0115 57.776 81.8158 52.9041 80.6923 46.5409C79.5688 40.1777 95.9938 28.2963 96.8787 31.0504C97.7736 33.8045 99.424 47.913 102.944 49.7623C106.453 51.6116 106.841 60.5499 105.787 63.6918C104.743 66.8436 100.319 65.044 95.6757 62.7969Z" fill="#F3D5B6"/>
<path fill-rule="evenodd" clip-rule="evenodd" d="M103.312 48.9771C101.482 54.6045 98.6585 59.9437 94.4727 64.8752L104.753 69.6675C108.482 65.3027 111.454 59.9735 113.871 53.9284L103.312 48.9771Z" fill="white"/>
<path fill-rule="evenodd" clip-rule="evenodd" d="M111.186 51.1343C109.078 57.6367 105.817 63.7911 100.975 69.4981L116.962 77.0942V53.8784L111.186 51.1343Z" fill="#0C77F8"/>
<path fill-rule="evenodd" clip-rule="evenodd" d="M18.3022 93.2608L74.2091 91.6799L77.3708 90.7056L22.329 92.2069L18.3022 93.2608Z" fill="#F4F9FE"/>
<path fill-rule="evenodd" clip-rule="evenodd" d="M84.3608 35.9025C85.2159 37.2149 93.0904 43.588 95.6754 45.8748C94.6514 43.4588 94.4426 37.8611 91.768 35.9621C90.0877 34.769 86.1903 37.2944 84.3608 35.9025Z" fill="#CFB496"/>
<path opacity="0.15" fill-rule="evenodd" clip-rule="evenodd" d="M101.79 29.8772L63.9386 2.36621C45.5548 12.5772 43.9541 23.156 37.1236 30.9908L19.8335 29.3204C19.8534 33.1881 21.3646 35.6638 24.0988 36.7177L72.8769 55.5289L72.5886 53.2322C86.0806 57.8157 80.294 37.2148 101.79 29.8772Z" fill="#202020"/>
<path fill-rule="evenodd" clip-rule="evenodd" d="M19.8232 29.3804C19.9426 32.4029 21.4936 35.2067 24.5062 36.1214C26.5643 36.7378 36.0992 39.3925 39.5194 37.7222C42.0547 36.4793 41.9354 34.2124 42.8999 31.4882L19.8232 29.3804Z" fill="#A9AFBF"/>
<path fill-rule="evenodd" clip-rule="evenodd" d="M76.1179 54.4453L24.4565 36.1013C26.5146 36.7377 29.2687 36.4891 32.7188 34.8088C43.1883 29.6884 41.2097 11.8018 62.0592 0L101.849 29.9071C97.5342 30.7821 90.634 34.4012 84.5989 40.0982C81.5366 42.9816 84.7481 52.3574 76.1179 54.4453Z" fill="#ECEFF3"/>
<path fill-rule="evenodd" clip-rule="evenodd" d="M85.9911 38.8352C85.5238 39.2428 85.0565 39.6604 84.5991 40.0979C83.6645 40.9828 83.3165 42.4642 83.0282 44.1545C82.1035 43.3789 80.9303 42.7128 79.429 41.977C75.6111 40.1078 72.509 35.8922 74.4876 33.6651C76.4661 31.428 80.4829 33.2177 84.2312 37.1847C84.7681 37.7515 85.3647 38.2983 85.9911 38.8352Z" fill="#F4F9FE"/>
<path fill-rule="evenodd" clip-rule="evenodd" d="M93.5769 57.7065C90.5047 56.2847 86.7563 51.9398 85.9311 47.9628C85.1059 43.9957 83.3858 42.564 79.5679 40.6948C83.3858 42.564 84.3303 45.1093 85.1556 49.0764C85.9808 53.0534 90.5047 56.2847 93.5769 57.7065Z" fill="#CFB496"/>
<path fill-rule="evenodd" clip-rule="evenodd" d="M93.5777 57.7065C90.5054 56.2847 86.7571 51.9398 85.9319 47.9628C85.1066 43.9957 83.3866 42.564 79.5686 40.6948C75.7507 38.8256 72.6486 34.61 74.6272 32.3828C76.6058 30.1458 80.6226 31.9354 84.3709 35.9025C88.1192 39.8696 94.5819 42.7629 97.0576 48.1616C99.5233 53.5604 100.846 59.3569 93.5777 57.7065Z" fill="#F3D5B6"/>
<path fill-rule="evenodd" clip-rule="evenodd" d="M78.6539 36.38C79.7575 34.819 79.3101 33.6657 78.3158 32.6217C77.3215 31.5678 75.7805 31.5181 74.9353 32.7112C74.0902 33.8943 74.6371 34.9482 75.2734 35.5448C75.8998 36.1314 77.59 37.5234 78.6539 36.38Z" fill="#FBF3EA"/>
</g>
</svg>
