<svg width="119" height="119" viewBox="0 0 119 119" fill="none" xmlns="http://www.w3.org/2000/svg">
<g opacity="0.7">
<mask id="mask0" style="mask-type:alpha" maskUnits="userSpaceOnUse" x="0" y="0" width="119" height="119">
<circle cx="59.5" cy="59.5" r="59.5" fill="#F4F9FE"/>
</mask>
<g mask="url(#mask0)">
<g clip-path="url(#clip0)">
<path d="M58.5082 121.379C93.2301 121.379 121.378 93.2311 121.378 58.5092C121.378 23.7873 93.2301 -4.36035 58.5082 -4.36035C23.7863 -4.36035 -4.36133 23.7873 -4.36133 58.5092C-4.36133 93.2311 23.7863 121.379 58.5082 121.379Z" fill="#F4F9FE"/>
<path d="M61.0071 82.2267C61.0071 77.7258 61.9358 75.0825 63.5076 74.6538H54.5772C56.2919 75.2254 57.0777 77.7258 57.0777 82.2267C57.0777 84.0842 50.1478 88.8709 46.3613 92.3002H71.7949C67.7227 88.7995 61.0071 83.8699 61.0071 82.2267Z" fill="#FFA686"/>
<path d="M56.5775 77.2978L61.007 81.7273C61.0784 77.5122 61.9357 75.0117 63.5075 74.583H54.5771C55.5059 74.9402 56.1489 75.7975 56.5775 77.2978Z" fill="#E88769" fill-opacity="0.5"/>
<path d="M58.5084 121.378C68.0817 121.378 77.1549 119.234 85.2994 115.376C83.6562 106.732 81.2272 94.7295 79.8698 93.5864C76.8692 91.0859 71.3681 89.1569 67.0815 88.0853C65.9385 87.1565 64.8668 86.2992 63.9381 85.4419L59.1514 88.0853L54.0075 85.4419C53.0788 86.2992 51.9357 87.1565 50.8641 88.0853C46.0774 89.2998 40.362 91.6574 37.2899 94.658C36.2898 95.6582 34.2179 107.446 32.7891 115.876C40.7192 119.449 49.3638 121.378 58.5084 121.378Z" fill="white"/>
<path d="M67.2237 88.7288L63.1515 91.515L59.2221 88.1572L55.2928 91.515L51.292 88.7288L55.5786 92.6581L59.2221 88.8002L62.8657 92.6581L67.2237 88.7288Z" fill="#EDEDED"/>
<path d="M61.5087 90.0147L59.2225 88.1572L57.0078 90.0862L58.4367 92.2295L57.0078 117.877L59.2225 120.521L61.5087 117.877L60.0084 92.2295L61.5087 90.0147Z" fill="#0C77F8"/>
<path d="M79.6557 96.5161L78.084 102.446L79.4414 117.806C79.2985 117.877 79.0841 117.949 78.9413 117.949L76.6551 101.446L79.6557 96.5161ZM40.0765 102.446L38.7191 118.163C38.8619 118.235 39.0763 118.235 39.2192 118.306L41.5768 101.446L38.5762 96.5161L40.0765 102.446Z" fill="#EDEDED"/>
<path d="M79.3685 44.1496V35.505C79.3685 24.2885 70.2953 15.2153 59.0788 15.2153C47.8623 15.2153 38.7891 24.2885 38.7891 35.505V44.221H79.3685V44.1496Z" fill="black"/>
<path d="M78.0124 56.3659C78.0124 66.868 69.5107 75.3697 59.0086 75.3697C48.5066 75.3697 40.0049 66.868 40.0049 56.3659V38.9339C40.0763 28.4319 48.578 19.9302 59.0801 19.9302C69.5822 19.9302 78.0838 28.4319 78.0838 38.9339V56.3659H78.0124Z" fill="#FFA686"/>
<path d="M83.5144 49.1506C83.5144 52.437 80.871 55.1518 77.5132 55.1518H40.5774C37.291 55.1518 34.5762 52.5084 34.5762 49.1506C34.5762 45.8642 37.2196 43.1494 40.5774 43.1494H77.5132C80.871 43.1494 83.5144 45.8642 83.5144 49.1506Z" fill="#FFA686"/>
<path d="M40.0754 46.793C38.7894 46.793 37.7178 47.8646 37.7178 49.1506C37.7178 50.4365 38.7894 51.5082 40.0754 51.5082V46.793Z" fill="#E88769" fill-opacity="0.5"/>
<path d="M78.0117 51.4369C79.2977 51.4369 80.3693 50.3653 80.3693 49.0793C80.3693 47.7933 79.2977 46.7217 78.0117 46.7217V51.4369Z" fill="#E88769" fill-opacity="0.5"/>
<path d="M57.4385 56.7954C57.4385 57.7242 58.2243 58.51 59.1531 58.51C60.0818 58.51 60.8677 57.7242 60.8677 56.7954H57.4385Z" fill="#E88769" fill-opacity="0.5"/>
<path d="M60.8677 56.7946C60.8677 57.3661 60.0818 57.7948 59.1531 57.7948C58.2243 57.7948 57.4385 57.3661 57.4385 56.7946C57.4385 56.2231 58.2243 47.8643 59.1531 47.8643C60.0818 47.8643 60.8677 56.2231 60.8677 56.7946Z" fill="#FFB69F"/>
<path d="M59.0813 15.2148C53.5088 15.2148 48.5078 17.4296 44.8643 21.0731L56.0808 32.2896C62.4391 38.648 72.0839 39.5053 79.3711 35.0759C79.0853 24.0737 70.0835 15.2148 59.0813 15.2148Z" fill="black"/>
<path d="M47.7931 19.9309L46.7929 18.002L45.9356 19.788L45.7212 18.3592L44.2924 21.074L42.292 22.36L43.8637 22.9315L47.7931 19.9309Z" fill="black"/>
<path d="M44.3636 42.0066C44.1493 42.0066 43.8635 41.9351 43.6492 41.7923C43.0776 41.435 42.8633 40.6492 43.2205 40.0062C44.1493 38.5059 45.6496 37.1485 47.4357 36.2912C48.0786 36.0054 48.8645 36.2197 49.1503 36.8627C49.5075 37.5057 49.2217 38.2916 48.5787 38.5773C47.2213 39.2918 46.0782 40.292 45.3638 41.3636C45.2209 41.7923 44.7923 42.0066 44.3636 42.0066Z" fill="black"/>
<path d="M50.9365 48.1507C51.9229 48.1507 52.7225 47.3511 52.7225 46.3647C52.7225 45.3783 51.9229 44.5786 50.9365 44.5786C49.95 44.5786 49.1504 45.3783 49.1504 46.3647C49.1504 47.3511 49.95 48.1507 50.9365 48.1507Z" fill="white"/>
<path d="M50.9362 47.579C51.607 47.579 52.1507 47.0352 52.1507 46.3644C52.1507 45.6937 51.607 45.1499 50.9362 45.1499C50.2654 45.1499 49.7217 45.6937 49.7217 46.3644C49.7217 47.0352 50.2654 47.579 50.9362 47.579Z" fill="black"/>
<path d="M74.1523 42.0063C73.7236 42.0063 73.295 41.792 73.0806 41.4348C72.009 39.7916 69.9371 38.3628 67.9368 37.9341C67.2223 37.7912 66.7937 37.0768 66.9366 36.4338C67.0794 35.7194 67.7939 35.2907 68.4369 35.4336C71.1517 36.0052 73.8665 37.8627 75.2239 40.0774C75.5811 40.6489 75.4382 41.4348 74.7953 41.8635C74.5809 41.9349 74.3666 42.0063 74.1523 42.0063Z" fill="black"/>
<path d="M67.58 48.1503C68.5664 48.1503 69.3661 47.3506 69.3661 46.3642C69.3661 45.3778 68.5664 44.5781 67.58 44.5781C66.5936 44.5781 65.7939 45.3778 65.7939 46.3642C65.7939 47.3506 66.5936 48.1503 67.58 48.1503Z" fill="white"/>
<path d="M67.5807 47.578C68.2515 47.578 68.7953 47.0342 68.7953 46.3634C68.7953 45.6927 68.2515 45.1489 67.5807 45.1489C66.91 45.1489 66.3662 45.6927 66.3662 46.3634C66.3662 47.0342 66.91 47.578 67.5807 47.578Z" fill="black"/>
<path d="M51.2207 59.1519V61.0808C51.2207 64.6529 54.1499 67.5821 57.722 67.5821H60.3654C63.9375 67.5821 66.8667 64.6529 66.8667 61.0808V59.1519H51.2207Z" fill="#721C05"/>
<path d="M56.4381 61.7238H61.4391C66.7973 61.7238 66.8688 59.1519 66.8688 59.1519H51.1514C51.2228 59.1519 51.2228 61.7238 56.4381 61.7238Z" fill="white"/>
<path d="M59.9351 62.9385H58.149C56.0772 62.9385 54.3626 64.2959 53.791 66.2248C54.8627 67.0107 56.2201 67.5108 57.7204 67.5108H60.3637C61.864 67.5108 63.2214 67.0107 64.2931 66.2248C63.7215 64.3673 62.0069 62.9385 59.9351 62.9385Z" fill="#9E1212"/>
<path d="M58.5081 -7.93311C21.858 -7.93311 -7.93359 21.8585 -7.93359 58.5086C-7.93359 95.1586 21.858 124.95 58.5081 124.95C95.1581 124.95 124.95 95.1586 124.95 58.5086C124.95 21.8585 95.1581 -7.93311 58.5081 -7.93311ZM58.5081 120.664C24.2156 120.664 -3.64703 92.801 -3.64703 58.5086C-3.64703 24.2161 24.2156 -3.64655 58.5081 -3.64655C92.8005 -3.64655 120.663 24.2161 120.663 58.5086C120.663 92.801 92.8005 120.664 58.5081 120.664Z" fill="#E5D265"/>
</g>
</g>
</g>
<defs>
<clipPath id="clip0">
<rect width="132.883" height="132.883" fill="white" transform="translate(-7.93359 -7.93311)"/>
</clipPath>
</defs>
</svg>
