<svg width="20" height="19" viewBox="0 0 20 19" fill="none" xmlns="http://www.w3.org/2000/svg">
<path fill-rule="evenodd" clip-rule="evenodd" d="M7.97269 12.9475H12.1902C12.5081 12.9475 12.7716 12.6813 12.7716 12.3603C12.7716 12.0392 12.5081 11.7808 12.1902 11.7808H7.97269C7.65483 11.7808 7.39123 12.0392 7.39123 12.3603C7.39123 12.6813 7.65483 12.9475 7.97269 12.9475ZM10.5931 7.86587H7.97269C7.65483 7.86587 7.39123 8.1321 7.39123 8.45314C7.39123 8.77419 7.65483 9.03258 7.97269 9.03258H10.5931C10.911 9.03258 11.1746 8.77419 11.1746 8.45314C11.1746 8.1321 10.911 7.86587 10.5931 7.86587ZM16.1243 7.18143C16.3065 7.17933 16.505 7.17704 16.6853 7.17704C16.8791 7.17704 17.0341 7.33364 17.0341 7.5294V13.8249C17.0341 15.7669 15.4758 17.3407 13.5532 17.3407H7.38196C5.36624 17.3407 3.72266 15.6886 3.72266 13.6527V5.21163C3.72266 3.26972 5.28871 1.68018 7.21915 1.68018H11.3591C11.5607 1.68018 11.7157 1.84461 11.7157 2.04037V4.56172C11.7157 5.99466 12.8864 7.16921 14.3052 7.17704C14.6366 7.17704 14.9287 7.17951 15.1844 7.18168C15.3833 7.18337 15.5601 7.18487 15.7162 7.18487C15.8265 7.18487 15.9696 7.18322 16.1243 7.18143ZM16.3388 6.03794C15.7015 6.04029 14.9503 6.03794 14.4099 6.03246C13.5525 6.03246 12.8462 5.31912 12.8462 4.45309V2.38903C12.8462 2.05154 13.2517 1.88398 13.4835 2.1275C13.9029 2.56799 14.4793 3.17344 15.053 3.77617C15.6257 4.37773 16.1958 4.97658 16.6047 5.40604C16.8311 5.6433 16.6652 6.03716 16.3388 6.03794Z" fill="#FF6A00"/>
</svg>
