<svg width="21" height="21" viewBox="0 0 21 21" fill="none" xmlns="http://www.w3.org/2000/svg">
<g id="Iconly/Bold/Tick Square">
<g id="Tick Square">
<path id="Tick Square_2" fill-rule="evenodd" clip-rule="evenodd" d="M6.71125 1.75H14.2975C17.2638 1.75 19.25 3.8325 19.25 6.93V14.0796C19.25 17.1675 17.2638 19.25 14.2975 19.25H6.71125C3.745 19.25 1.75 17.1675 1.75 14.0796V6.93C1.75 3.8325 3.745 1.75 6.71125 1.75ZM10.0012 13.1162L14.1574 8.95999C14.4549 8.66249 14.4549 8.18124 14.1574 7.87499C13.8599 7.57749 13.3699 7.57749 13.0724 7.87499L9.4587 11.4887L7.92745 9.95749C7.62995 9.65999 7.13995 9.65999 6.84245 9.95749C6.54495 10.255 6.54495 10.7362 6.84245 11.0425L8.92495 13.1162C9.0737 13.265 9.2662 13.335 9.4587 13.335C9.65995 13.335 9.85245 13.265 10.0012 13.1162Z" fill="#38B593"/>
</g>
</g>
</svg>
