<svg width="50" height="50" viewBox="0 0 50 50" fill="none" xmlns="http://www.w3.org/2000/svg">
<path opacity="0.35" d="M24.9994 45.4975C36.5053 45.4975 45.8327 36.2383 45.8327 24.8166C45.8327 13.3949 36.5053 4.13574 24.9994 4.13574C13.4934 4.13574 4.16602 13.3949 4.16602 24.8166C4.16602 36.2383 13.4934 45.4975 24.9994 45.4975Z" fill="#4C536A"/>
<path d="M22.916 16.5449C22.916 16.5449 22.916 34.438 22.916 35.1577C22.916 36.2993 23.8493 37.2258 24.9993 37.2258C26.1493 37.2258 27.0827 36.2993 27.0827 35.1577C27.0827 34.438 27.0827 16.5449 27.0827 16.5449H22.916Z" fill="#4C536A"/>
<path d="M14.584 24.8175C14.584 24.2881 14.7882 23.7587 15.1944 23.3554L23.5277 15.083C24.3423 14.2744 25.659 14.2744 26.4736 15.083L34.8069 23.3554C35.6215 24.164 35.6215 25.471 34.8069 26.2796C33.9923 27.0883 32.6757 27.0883 31.8611 26.2796L25.0007 19.4694L18.1402 26.2796C17.3257 27.0883 16.009 27.0883 15.1944 26.2796C14.7882 25.8764 14.584 25.3469 14.584 24.8175Z" fill="#4C536A"/>
</svg>
