<svg width="16" height="16" viewBox="0 0 16 16" fill="none" xmlns="http://www.w3.org/2000/svg">
<path d="M7.20464 1.33301C6.85998 1.33301 6.53068 1.46922 6.28668 1.71322L6.00022 1.99967H2.66688C2.57854 1.99843 2.49083 2.01475 2.40886 2.04769C2.32688 2.08063 2.25226 2.12954 2.18935 2.19157C2.12644 2.2536 2.07648 2.32751 2.04238 2.40902C2.00828 2.49052 1.99072 2.57799 1.99072 2.66634C1.99072 2.75469 2.00828 2.84216 2.04238 2.92367C2.07648 3.00517 2.12644 3.07909 2.18935 3.14112C2.25226 3.20314 2.32688 3.25205 2.40886 3.28499C2.49083 3.31794 2.57854 3.33426 2.66688 3.33301H13.3336C13.4219 3.33426 13.5096 3.31794 13.5916 3.28499C13.6736 3.25205 13.7482 3.20314 13.8111 3.14112C13.874 3.07909 13.924 3.00517 13.9581 2.92367C13.9922 2.84216 14.0097 2.75469 14.0097 2.66634C14.0097 2.57799 13.9922 2.49052 13.9581 2.40902C13.924 2.32751 13.874 2.2536 13.8111 2.19157C13.7482 2.12954 13.6736 2.08063 13.5916 2.04769C13.5096 2.01475 13.4219 1.99843 13.3336 1.99967H10.0002L9.71376 1.71322C9.47043 1.46922 9.14046 1.33301 8.79579 1.33301H7.20464ZM2.91037 4.66634L3.9286 13.5088C4.0166 14.1688 4.58488 14.6663 5.25022 14.6663H10.7489C11.4142 14.6663 11.9832 14.1696 12.0718 13.5036L13.0901 4.66634H2.91037Z" fill="#9CA7B8"/>
</svg>
