<svg width="13" height="13" viewBox="0 0 13 13" fill="none" xmlns="http://www.w3.org/2000/svg">
<path d="M7.8906 0.333008C7.71985 0.333008 7.54925 0.397987 7.41925 0.52832L2.09503 5.85254C2.01903 5.92854 1.96363 6.02071 1.93097 6.12337L0.031225 12.1325C-0.0441084 12.3698 0.0192874 12.629 0.195288 12.8044C0.321954 12.931 0.492642 12.9997 0.666642 12.9997C0.733975 12.9997 0.801798 12.9891 0.868465 12.9684L6.87758 11.0687C6.97891 11.0367 7.07178 10.9813 7.14711 10.9059L12.4713 5.5804C12.732 5.31974 12.732 4.8977 12.4713 4.63769L8.36326 0.52832C8.23293 0.397987 8.06135 0.333008 7.8906 0.333008ZM3.09763 6.85514C3.2084 6.92197 3.31234 6.99447 3.39581 7.0778C3.72327 7.4057 3.90594 7.99615 3.96873 8.43848C3.98865 8.57958 4.05327 8.71059 4.15309 8.81229C4.25292 8.91399 4.3827 8.98103 4.52341 9.00358C4.9784 9.077 5.59559 9.27628 5.92315 9.60384C6.00712 9.68781 6.08272 9.7885 6.14972 9.89941L2.68357 10.9958L2.00388 10.3161L3.09763 6.85514Z" fill="#9CA7B8"/>
</svg>
