<svg width="14" height="14" viewBox="0 0 14 14" fill="none" xmlns="http://www.w3.org/2000/svg">
<path fill-rule="evenodd" clip-rule="evenodd" d="M7.57273 0.0336787C9.164 0.192808 10.6483 0.907683 11.7647 2.05268C12.981 3.28828 13.7001 4.92824 13.785 6.65998C13.8698 8.39171 13.3144 10.0941 12.2247 11.4427C11.2225 12.6885 9.81599 13.5444 8.24897 13.8622C6.68195 14.18 5.05313 13.9396 3.64473 13.1827C2.2333 12.4094 1.13146 11.1733 0.524728 9.68268C-0.084716 8.18438 -0.165834 6.52323 0.294728 4.97268C0.7543 3.42817 1.73268 2.08952 3.06473 1.18268C4.38557 0.28159 5.98171 -0.125233 7.57273 0.0336787ZM8.04473 12.8827C9.38756 12.6103 10.5934 11.8783 11.4547 10.8127C12.3873 9.65362 12.8618 8.19243 12.7881 6.70658C12.7143 5.22073 12.0975 3.8137 11.0547 2.75268C10.0996 1.77769 8.83219 1.1694 7.47404 1.03413C6.11589 0.898866 4.7534 1.24523 3.62473 2.01268C2.77516 2.59807 2.08912 3.39068 1.6316 4.31541C1.17408 5.24013 0.960224 6.26636 1.0103 7.29686C1.06037 8.32737 1.37271 9.32803 1.91773 10.204C2.46276 11.0801 3.22241 11.8024 4.12473 12.3027C5.32305 12.9494 6.71047 13.1547 8.04473 12.8827ZM6.37973 5.00268H7.62973V4.00268H6.37973V5.00268ZM7.62973 6.00268V10.0027H6.37973V6.00268H7.62973Z" fill="#0C77F8"/>
</svg>
