<svg width="4" height="15" viewBox="0 0 4 15" fill="none" xmlns="http://www.w3.org/2000/svg">
<path d="M1.7941 5.7059C1.55849 5.7059 1.3252 5.75231 1.10753 5.84247C0.889856 5.93263 0.692077 6.06478 0.52548 6.23138C0.358882 6.39798 0.22673 6.59576 0.136568 6.81343C0.0464058 7.0311 1.85525e-07 7.2644 1.85525e-07 7.5C1.85525e-07 7.7356 0.0464058 7.9689 0.136568 8.18657C0.22673 8.40424 0.358882 8.60202 0.52548 8.76862C0.692077 8.93522 0.889856 9.06737 1.10753 9.15753C1.3252 9.24769 1.55849 9.2941 1.7941 9.2941C2.26992 9.29399 2.72622 9.10487 3.0626 8.76833C3.39898 8.4318 3.5879 7.97542 3.58779 7.49959C3.58768 7.02377 3.39856 6.56747 3.06202 6.23109C2.72549 5.89471 2.26911 5.70579 1.79328 5.7059H1.7941ZM1.7941 3.58657C2.0296 3.58646 2.26277 3.53997 2.4803 3.44975C2.69783 3.35953 2.89546 3.22735 3.0619 3.06075C3.22835 2.89415 3.36035 2.6964 3.45037 2.47879C3.5404 2.26118 3.58667 2.02797 3.58657 1.79247C3.58646 1.55697 3.53997 1.3238 3.44975 1.10627C3.35953 0.88874 3.22735 0.69111 3.06075 0.524664C2.89415 0.358218 2.6964 0.226216 2.47879 0.136194C2.26118 0.0461718 2.02797 -0.000106859 1.79247 1.85274e-07C1.31686 0.000216378 0.860817 0.189358 0.524664 0.525817C0.188511 0.862276 -0.000216 1.31849 1.85525e-07 1.7941C0.000216371 2.26971 0.189358 2.72575 0.525817 3.0619C0.862276 3.39806 1.31849 3.58678 1.7941 3.58657ZM1.7941 11.4118C1.31827 11.4118 0.861938 11.6008 0.52548 11.9373C0.189021 12.2737 1.85525e-07 12.7301 1.85525e-07 13.2059C1.85525e-07 13.6817 0.189021 14.1381 0.52548 14.4745C0.861938 14.811 1.31827 15 1.7941 15C2.26992 15 2.72626 14.811 3.06272 14.4745C3.39918 14.1381 3.5882 13.6817 3.5882 13.2059C3.5882 12.7301 3.39918 12.2737 3.06272 11.9373C2.72626 11.6008 2.26992 11.4118 1.7941 11.4118Z" fill="#0C77F8"/>
</svg>
