<svg width="18" height="26" viewBox="0 0 18 26" fill="none" xmlns="http://www.w3.org/2000/svg">
<path d="M15.4286 12.7059C16.1106 12.7059 16.7646 12.9736 17.2468 13.4502C17.7291 13.9267 18 14.5731 18 15.2471V22.8706C18 23.5446 17.7291 24.1909 17.2468 24.6675C16.7646 25.144 16.1106 25.4118 15.4286 25.4118H2.57143C1.88944 25.4118 1.23539 25.144 0.753154 24.6675C0.270917 24.1909 0 23.5446 0 22.8706V15.2471C0 14.5731 0.270917 13.9267 0.753154 13.4502C1.23539 12.9736 1.88944 12.7059 2.57143 12.7059V6.35294C2.57143 4.66804 3.24872 3.05214 4.45431 1.86073C5.6599 0.669326 7.29504 0 9 0C10.705 0 12.3401 0.669326 13.5457 1.86073C14.7513 3.05214 15.4286 4.66804 15.4286 6.35294V12.7059ZM9 21.6C9.68198 21.6 10.336 21.3323 10.8183 20.8557C11.3005 20.3791 11.5714 19.7328 11.5714 19.0588C11.5714 18.3849 11.3005 17.7385 10.8183 17.2619C10.336 16.7854 9.68198 16.5176 9 16.5176C8.31801 16.5176 7.66396 16.7854 7.18173 17.2619C6.69949 17.7385 6.42857 18.3849 6.42857 19.0588C6.42857 19.7328 6.69949 20.3791 7.18173 20.8557C7.66396 21.3323 8.31801 21.6 9 21.6ZM12.8571 12.7059V6.35294C12.8571 5.342 12.4508 4.37246 11.7274 3.65762C11.0041 2.94277 10.023 2.54118 9 2.54118C7.97702 2.54118 6.99594 2.94277 6.27259 3.65762C5.54923 4.37246 5.14286 5.342 5.14286 6.35294V12.7059H12.8571Z" fill="#4A4A68"/>
</svg>
