<svg width="249" height="249" viewBox="0 0 249 249" fill="none" xmlns="http://www.w3.org/2000/svg">
<circle cx="124.5" cy="124.542" r="124.1" fill="#F3F8FE"/>
<circle cx="124.5" cy="124.542" r="102.79" fill="#DCEBFE"/>
<circle cx="123.873" cy="125.169" r="75.8389" fill="#B2D3FC"/>
<circle cx="123.873" cy="125.168" r="48.2611" fill="#0C77F8"/>
<path d="M120.715 134.415L112.121 125.86C112.071 125.811 112.032 125.752 112.005 125.688C111.978 125.623 111.965 125.554 111.965 125.484C111.965 125.414 111.978 125.345 112.005 125.28C112.032 125.215 112.071 125.157 112.121 125.107L114.291 122.933C114.498 122.726 114.833 122.726 115.04 122.933L120.698 128.563C120.906 128.771 121.243 128.768 121.451 128.561L133.953 115.925C134.16 115.715 134.498 115.715 134.707 115.923L136.88 118.097C137.087 118.305 137.087 118.64 136.882 118.848L123.261 132.605L123.264 132.608L121.468 134.415C121.26 134.622 120.923 134.622 120.715 134.415Z" fill="white"/>
</svg>
