<svg width="15" height="15" viewBox="0 0 15 15" fill="none" xmlns="http://www.w3.org/2000/svg">
<path d="M2.90381 2.90381C3.50739 2.30023 4.22394 1.82144 5.01256 1.49478C5.80117 1.16813 6.64641 1 7.5 1C8.35359 1 9.19883 1.16813 9.98744 1.49478C10.7761 1.82144 11.4926 2.30023 12.0962 2.90381C12.6998 3.50739 13.1786 4.22394 13.5052 5.01256C13.8319 5.80117 14 6.64641 14 7.5C14 8.35359 13.8319 9.19883 13.5052 9.98744C13.1786 10.7761 12.6998 11.4926 12.0962 12.0962C10.8772 13.3152 9.22391 14 7.5 14C5.77609 14 4.12279 13.3152 2.90381 12.0962C1.68482 10.8772 1 9.22391 1 7.5C1 5.77609 1.68482 4.12279 2.90381 2.90381V2.90381Z" stroke="#0C77F8" stroke-width="1.08333" stroke-linecap="round"/>
<path d="M3.1665 3.16602L11.8331 11.8326" stroke="#0C77F8" stroke-width="1.08333" stroke-linecap="round"/>
</svg>
