<svg width="135" height="32" viewBox="0 0 135 32" fill="none" xmlns="http://www.w3.org/2000/svg">
<path d="M9.43713 25.448C14.0771 25.448 17.9171 23.112 17.9171 18.28C17.9171 13.256 13.6291 12.2 10.2371 11.336C7.83713 10.76 5.91713 10.28 5.91713 8.712C5.91713 7.24 7.48513 6.568 9.05313 6.568C10.8771 6.568 12.4771 7.464 12.4771 9.416H17.2451C17.2451 4.936 14.3331 2.184 9.18113 2.184C4.22113 2.184 1.05313 4.616 1.05313 8.904C1.05313 13.736 5.14913 14.728 8.54113 15.56C10.9731 16.104 13.0211 16.584 13.0211 18.344C13.0211 20.008 11.2291 20.968 9.40513 20.968C7.42113 20.968 5.62913 19.912 5.62913 17.768H0.733125C0.733125 22.568 4.28513 25.448 9.43713 25.448ZM31.3936 7.336C29.3136 7.336 27.4896 8.104 26.1776 9.352V1.512H21.5056V25H26.1776V15.944C26.1776 13.128 27.7136 11.432 30.0496 11.432C32.1296 11.432 33.0576 12.712 33.0576 15.304V25H37.7296V14.504C37.7296 10.12 35.2976 7.336 31.3936 7.336ZM42.0056 5.416H46.6456V1.096H42.0056V5.416ZM42.0056 25H46.6776V7.72H42.0056V25ZM72.6339 20.712C70.7459 20.712 69.7539 19.688 69.7539 17.8V11.816H74.5859V7.976H69.7539V2.92H65.0819V7.976H57.2739V6.504C57.2739 5.288 57.9139 4.648 59.1619 4.648H61.6899V0.967999H58.2339C54.5859 0.967999 52.7299 3.08 52.7299 6.408V7.976H49.7219V11.816H52.6979V25H57.3699V11.816H65.0819V18.056C65.0819 22.312 67.7699 25 72.0259 25H74.6179V20.712H72.6339ZM85.0806 20.712C90.0726 14.984 91.1926 12.584 91.1926 9.992C91.1926 6.056 88.2486 3.304 84.0566 3.304C79.8006 3.304 77.0806 6.12 77.0806 10.024V10.504H81.6566V10.088C81.6566 8.584 82.6166 7.56 84.1526 7.56C85.5926 7.56 86.5846 8.552 86.5846 10.024C86.5846 12.232 85.4326 13.896 76.6646 24.008V25H91.5766V20.712H85.0806ZM109.364 7.72L108.596 9.448C107.092 8.072 105.108 7.24 102.868 7.24C98.0359 7.24 94.2599 11.08 94.2599 15.912C94.2599 20.776 98.0359 24.584 102.868 24.584C104.724 24.584 106.42 24.008 107.796 23.048V23.688C107.796 26.216 105.844 27.752 103.476 27.752C101.748 27.752 99.9239 26.952 99.3799 25.384H94.7399C95.5399 29.32 98.8679 31.72 103.54 31.72C109.012 31.72 112.372 28.424 112.372 23.016V7.752L109.364 7.72ZM103.412 20.392C100.852 20.392 98.9959 18.504 98.9959 15.944C98.9959 13.352 100.852 11.464 103.412 11.464C105.972 11.464 107.828 13.352 107.828 15.944C107.828 18.504 105.972 20.392 103.412 20.392ZM125.073 25.512C130.417 25.512 134.417 21.576 134.417 16.36C134.417 11.144 130.417 7.24 125.073 7.24C119.729 7.24 115.729 11.144 115.729 16.36C115.729 21.576 119.729 25.512 125.073 25.512ZM125.073 21.096C122.385 21.096 120.465 19.176 120.465 16.36C120.465 13.576 122.385 11.624 125.073 11.624C127.761 11.624 129.681 13.576 129.681 16.36C129.681 19.176 127.761 21.096 125.073 21.096Z" fill="#0C77F8"/>
</svg>
