<svg width="243" height="13" viewBox="0 0 243 13" fill="none" xmlns="http://www.w3.org/2000/svg">
<path d="M223.567 1.5124C218.3 1.21008 212.943 0.907754 207.585 0.605428C205.86 0.504653 204.044 0.504653 202.318 0.403877C198.504 0.303102 194.691 0.202327 190.877 0.101552C188.788 0.000776723 186.609 0.000776723 184.52 -0.0999985C183.885 -0.0999985 183.249 -0.0999985 182.704 -0.0999985C181.342 -0.0999985 179.98 -0.0999985 178.527 -0.0999985C172.261 -0.0999985 165.995 -0.0999985 159.73 -0.0999985C158.277 -0.0999985 156.733 -0.0999985 155.28 0.000776723C151.557 0.101552 147.925 0.101552 144.202 0.202327C140.025 0.303102 135.848 0.303102 131.67 0.403877C124.951 0.605428 118.14 0.806978 111.42 1.00853C107.516 1.1093 103.611 1.21008 99.7063 1.31085C92.9865 1.61318 86.2668 1.91551 79.5471 2.21783C75.824 2.41938 72.1917 2.52016 68.4686 2.72171C61.4765 3.22558 54.4843 3.62868 47.4921 4.03178C43.7691 4.23334 40.046 4.43489 36.3229 4.73721C29.4215 5.34186 22.4294 6.04729 15.528 6.75271C14.0751 6.85349 12.5314 7.05504 10.9877 7.15582C8.08184 7.45814 5.0852 7.96202 2.08856 8.36512C1.90695 8.36512 1.72534 8.46589 1.54372 8.46589C1.18049 8.46589 0.908072 8.66744 0.63565 8.96977C0.181614 9.47365 0 10.0783 0 10.6829C0 11.2876 0.181614 11.8923 0.63565 12.2954C0.998879 12.6985 1.63453 13.0008 2.08856 13.0008C5.72085 12.5977 9.26233 12.0938 12.8946 11.6907C16.2545 11.3884 19.6143 11.086 22.9742 10.7837C26.6065 10.4814 30.2388 10.0783 33.9619 9.77597C35.4148 9.6752 36.8677 9.47365 38.4114 9.37287C44.1323 9.07055 49.7623 8.66744 55.4832 8.36512C59.0247 8.16357 62.5661 7.96202 66.1076 7.76047C67.5605 7.65969 69.0135 7.55892 70.4664 7.45814C76.0964 7.15582 81.7264 6.95427 87.3565 6.65194C90.8072 6.55116 94.167 6.34961 97.6177 6.24884C98.7982 6.24884 99.8879 6.14806 101.068 6.14806C107.152 5.94651 113.237 5.84574 119.321 5.64419C122.68 5.54341 126.131 5.44264 129.491 5.34186C130.672 5.34186 131.943 5.24109 133.123 5.24109C139.389 5.14031 145.655 5.14031 152.011 5.03954C155.916 5.03954 159.821 4.93876 163.725 4.93876C170.354 4.93876 177.074 4.93876 183.703 5.03954C184.974 5.03954 186.336 5.14031 187.608 5.14031C191.331 5.24109 194.963 5.34186 198.686 5.54341C201.41 5.64419 204.225 5.74496 206.95 5.84574C208.947 5.94651 210.854 6.04729 212.852 6.14806C218.573 6.45039 224.385 6.85349 230.105 7.25659C231.558 7.35737 233.011 7.45814 234.464 7.55892C236.008 7.65969 237.642 7.76047 239.186 7.96202C239.458 7.96202 239.64 8.06279 239.913 8.16357C240.548 8.26434 241.093 8.26434 241.638 7.86124C242.183 7.55892 242.546 6.95427 242.728 6.34961C243.091 5.03954 242.364 3.62868 241.093 3.22558C240.003 2.92326 238.914 2.82248 237.915 2.62093C237.188 2.52016 236.462 2.41938 235.735 2.41938C234.283 2.21783 232.83 2.21783 231.467 2.01628C228.925 1.91551 226.201 1.71396 223.567 1.5124Z" fill="#0C77F8"/>
</svg>
