<svg width="27" height="20" viewBox="0 0 27 20" fill="none" xmlns="http://www.w3.org/2000/svg">
<path d="M9.71536 19.4147L1.121 10.86C1.07143 10.8107 1.0321 10.752 1.00526 10.6874C0.978417 10.6228 0.9646 10.5535 0.9646 10.4836C0.9646 10.4136 0.978417 10.3443 1.00526 10.2797C1.0321 10.2151 1.07143 10.1564 1.121 10.1071L3.29068 7.93285C3.49801 7.72532 3.8331 7.72532 4.04043 7.93285L9.69848 13.5627C9.90581 13.7703 10.2433 13.7679 10.4506 13.5603L22.9528 0.925035C23.1602 0.71509 23.4977 0.71509 23.7074 0.922621L25.8795 3.09688C26.0868 3.30441 26.0868 3.63984 25.8819 3.84737L12.2611 17.6048L12.2635 17.6072L10.4675 19.4147C10.2602 19.6222 9.92268 19.6222 9.71536 19.4147Z" fill="white"/>
</svg>
