<svg width="33" height="37" viewBox="0 0 33 37" fill="none" xmlns="http://www.w3.org/2000/svg">
<g clip-path="url(#clip0)">
<path d="M3.72761 7.21362V29.7563L0.0498047 27.6423V9.32762L3.72761 7.21362Z" fill="white" stroke="#38B593" stroke-width="0.0799265" stroke-miterlimit="10"/>
<path d="M9.93826 3.71704V33.3331L6.48153 31.3393L6.27051 31.2191V5.75089L9.79758 3.71704H9.93826Z" fill="white" stroke="#38B593" stroke-width="0.0799265" stroke-miterlimit="10"/>
<path d="M32.3765 9.90895V9.1475L28.5781 6.96337L27.3522 6.26205H16.2585V3.71723H22.4183V3.40664L19.7654 1.88376L16.58 0.050293H16.1781L12.4902 2.17431V34.796L12.5907 34.8561L16.2283 36.9501L16.2585 36.9301L19.7654 34.9062L22.4183 33.3834L26.1664 31.2193L28.5781 29.8366L32.3765 27.6525V12.4437H16.2585V9.90895H32.3765ZM28.5781 16.2109V25.6587L26.1664 27.0414L22.4183 29.1954L19.7654 30.7183L16.2585 32.7421V29.8567L19.7654 27.8329L22.4183 26.31L26.1664 24.1459V16.2008H28.5781V16.2109ZM22.4183 16.2109V22.1721L19.7654 23.695L16.2585 25.7189V16.2209H22.4183V16.2109Z" fill="white" stroke="#38B593" stroke-width="0.0799265" stroke-miterlimit="10"/>
</g>
<defs>
<clipPath id="clip0">
<rect width="32.427" height="37" fill="white"/>
</clipPath>
</defs>
</svg>
